<svg width="40" height="40" viewBox="0 0 40 40" fill="none" xmlns="http://www.w3.org/2000/svg">
<path fill-rule="evenodd" clip-rule="evenodd" d="M2.5666e-07 1.99983C2.5666e-07 1.46944 0.191558 0.960779 0.532533 0.585737C0.873509 0.210696 1.33597 0 1.81818 0H21.8182C22.3004 0 22.7629 0.210696 23.1038 0.585737C23.4448 0.960779 23.6364 1.46944 23.6364 1.99983V11.999H30.9091C32.1029 11.999 33.2851 12.2576 34.388 12.7601C35.491 13.2626 36.4932 13.9992 37.3373 14.9277C38.1815 15.8562 38.8511 16.9585 39.308 18.1716C39.7649 19.3848 40 20.685 40 21.9982V29.9975C40.0005 31.285 39.6244 32.5384 38.9273 33.5727C38.2303 34.607 37.2492 35.3672 36.1291 35.741C35.7956 36.9509 35.1232 38.014 34.2078 38.7786C33.2923 39.5432 32.1807 39.9701 31.0316 39.9985C29.8824 40.0269 28.7545 39.6552 27.8088 38.9366C26.8631 38.218 26.148 37.1892 25.7655 35.997H14.2364C13.8539 37.1892 13.1387 38.218 12.193 38.9366C11.2473 39.6552 10.1194 40.0269 8.97024 39.9985C7.82109 39.9701 6.70947 39.5432 5.79405 38.7786C4.87862 38.014 4.20619 36.9509 3.87273 35.741C2.75228 35.3676 1.77081 34.6075 1.0734 33.5732C0.375985 32.5389 -0.000358783 31.2852 2.5666e-07 29.9975V21.9982H10.9091C11.3913 21.9982 11.8538 21.7875 12.1947 21.4124C12.5357 21.0374 12.7273 20.5287 12.7273 19.9983C12.7273 19.4679 12.5357 18.9593 12.1947 18.5842C11.8538 18.2092 11.3913 17.9985 10.9091 17.9985H2.5666e-07V13.9988H7.27273C7.75494 13.9988 8.2174 13.7881 8.55838 13.4131C8.89935 13.038 9.09091 12.5294 9.09091 11.999C9.09091 11.4686 8.89935 10.9599 8.55838 10.5849C8.2174 10.2099 7.75494 9.99916 7.27273 9.99916H2.5666e-07V1.99983ZM23.6364 31.9973H25.7655C26.1249 30.8783 26.778 29.9017 27.6422 29.191C28.5063 28.4803 29.5427 28.0675 30.6202 28.0048C31.6977 27.9421 32.7679 28.2323 33.6954 28.8386C34.6229 29.445 35.3661 30.3403 35.8309 31.4114C36.1719 31.0364 36.3635 30.5278 36.3636 29.9975V21.9982C36.3636 20.407 35.789 18.881 34.766 17.7559C33.7431 16.6307 32.3557 15.9987 30.9091 15.9987H23.6364V31.9973ZM10.9091 33.9972C10.9091 33.4668 10.7175 32.9581 10.3766 32.5831C10.0356 32.208 9.57312 31.9973 9.09091 31.9973C8.6087 31.9973 8.14624 32.208 7.80526 32.5831C7.46429 32.9581 7.27273 33.4668 7.27273 33.9972C7.27273 34.5275 7.46429 35.0362 7.80526 35.4112C8.14624 35.7863 8.6087 35.997 9.09091 35.997C9.57312 35.997 10.0356 35.7863 10.3766 35.4112C10.7175 35.0362 10.9091 34.5275 10.9091 33.9972ZM29.6236 32.5833C29.2826 32.9582 29.091 33.4668 29.0909 33.9972C29.0908 34.4598 29.2366 34.9082 29.5034 35.2659C29.7702 35.6237 30.1415 35.8686 30.554 35.9589C30.9666 36.0493 31.3949 35.9795 31.7659 35.7615C32.1369 35.5434 32.4277 35.1906 32.5887 34.7632C32.7498 34.3358 32.7711 33.8602 32.6491 33.4174C32.527 32.9746 32.2692 32.5921 31.9195 32.335C31.5697 32.0779 31.1498 31.9621 30.7312 32.0073C30.3125 32.0526 29.9211 32.2562 29.6236 32.5833Z" fill="#0D99FF"/>
</svg>
