<svg width="16" height="16" viewBox="0 0 16 16" fill="none" xmlns="http://www.w3.org/2000/svg">
<path fill-rule="evenodd" clip-rule="evenodd" d="M9.5 3C9.77614 3 10 3.22386 10 3.5V6H12.7315C12.814 6 12.8953 6.02045 12.968 6.05951C13.0408 6.09857 13.1027 6.15504 13.1483 6.22386L14.9168 8.89333C14.9711 8.97521 15 9.07125 15 9.16947V10.5C15 10.7761 14.7761 11 14.5 11H13C13 12.1046 12.1046 13 11 13C9.89544 13 9 12.1046 9 11H6C6 12.1046 5.10456 13 4 13C2.89544 13 2 12.1046 2 11H1.5C1.22386 11 1 10.7761 1 10.5V3.5C1 3.22386 1.22386 3 1.5 3H9.5ZM4 10C3.44772 10 3 10.4477 3 11C3 11.5523 3.44772 12 4 12L4.01653 11.9999C4.56119 11.991 5 11.5468 5 11C5 10.4477 4.55228 10 4 10ZM11 10C10.4477 10 10 10.4477 10 11C10 11.5523 10.4477 12 11 12L11.0165 11.9999C11.5612 11.991 12 11.5468 12 11C12 10.4477 11.5523 10 11 10ZM12.463 7H10V9.26756C10.2942 9.09741 10.6357 9 11 9C11.7403 9 12.3866 9.4022 12.7324 10H14V9.32006L12.463 7ZM7.8125 7H5.1875C5.08395 7 5 7.08395 5 7.1875V7.8125C5 7.91605 5.08395 8 5.1875 8H7.8125C7.91605 8 8 7.91605 8 7.8125V7.1875C8 7.08395 7.91605 7 7.8125 7ZM4.8125 5H3.1875C3.08395 5 3 5.08395 3 5.1875V5.8125C3 5.91605 3.08395 6 3.1875 6H4.8125C4.91605 6 5 5.91605 5 5.8125V5.1875C5 5.08395 4.91605 5 4.8125 5Z" fill="#F24822"/>
</svg>
