<svg width="24" height="24" viewBox="0 0 24 24" fill="none" xmlns="http://www.w3.org/2000/svg">
<path d="M12 19.072C8.742 17.673 6.6145 14.982 6.24 11.73C6.13735 10.2204 6.12617 8.70596 6.2065 7.195C7.969 7.045 10.102 6.5965 12 5.2065C13.9015 6.598 16.035 7.0465 17.7935 7.196C17.874 8.716 17.8625 10.2305 17.7595 11.73C17.386 14.982 15.258 17.673 12 19.072Z" stroke="#0D99FF" stroke-width="0.5" stroke-linecap="round" stroke-linejoin="round"/>
<path d="M12 21.75C16.5215 20.1915 19.7445 16.5685 20.25 11.9555C20.39 9.953 20.3785 7.943 20.2145 5.942C20.1929 5.6266 20.0545 5.33058 19.8263 5.1118C19.5981 4.89303 19.2965 4.76723 18.9805 4.759C16.935 4.696 14.5575 4.355 12.7205 2.5455C12.5287 2.35604 12.2699 2.24979 12.0002 2.24979C11.7306 2.24979 11.4718 2.35604 11.28 2.5455C9.4425 4.355 7.065 4.696 5.02 4.759C4.70397 4.76723 4.40237 4.89303 4.17416 5.1118C3.94595 5.33058 3.80755 5.6266 3.786 5.942C3.62198 7.94271 3.60994 9.95298 3.75 11.9555C4.256 16.5685 7.4785 20.1915 12 21.75ZM12 21.75V19.072M12 5.2065V2.2915M17.76 11.73H20.25" stroke="#0D99FF" stroke-width="0.5" stroke-linecap="round" stroke-linejoin="round"/>
</svg>
