<svg width="70" height="52" viewBox="0 0 70 52" fill="none" xmlns="http://www.w3.org/2000/svg">
<path d="M64.4919 14.014L42.6169 5.0765C42.2938 4.94449 41.9312 4.87527 41.5625 4.87527C41.1938 4.87527 40.8311 4.94449 40.5081 5.0765L18.6331 14.014C18.2901 14.1543 18.0041 14.3604 17.8049 14.6108C17.6058 14.8611 17.5007 15.1467 17.5007 15.4375C17.5007 15.7283 17.6058 16.0139 17.8049 16.2642C18.0041 16.5146 18.2901 16.7207 18.6331 16.861L39.375 25.3354V42.7537L32.7337 40.04L30.625 42.8854L40.5081 46.9235C40.8311 47.0555 41.1938 47.1247 41.5625 47.1247C41.9312 47.1247 42.2938 47.0555 42.6169 46.9235L64.4919 37.986C64.835 37.8458 65.1211 37.6397 65.3204 37.3893C65.5197 37.1389 65.6249 36.8534 65.625 36.5625V15.4375C65.6249 15.1466 65.5197 14.8611 65.3204 14.6107C65.1211 14.3603 64.835 14.1542 64.4919 14.014ZM41.5625 8.35575L58.8984 15.4375L41.5625 22.5192L24.2266 15.4375L41.5625 8.35575ZM61.25 35.6021L43.75 42.7521V25.3337L61.25 18.1837V35.6021Z" fill="#0D99FF"/>
<path d="M21.875 26H4.375V22.75H21.875V26ZM26.25 39H8.75V35.75H26.25V39ZM30.625 32.5H13.125V29.25H30.625V32.5Z" fill="#0D99FF"/>
</svg>
