<svg width="80" height="70" viewBox="0 0 80 70" fill="none" xmlns="http://www.w3.org/2000/svg">
<path d="M17.5 32.8125H67.5C68.163 32.8125 68.7989 33.043 69.2678 33.4532C69.7366 33.8634 70 34.4198 70 35C70 35.5802 69.7366 36.1366 69.2678 36.5468C68.7989 36.957 68.163 37.1875 67.5 37.1875H17.5C16.837 37.1875 16.2011 36.957 15.7322 36.5468C15.2634 36.1366 15 35.5802 15 35C15 34.4198 15.2634 33.8634 15.7322 33.4532C16.2011 33.043 16.837 32.8125 17.5 32.8125Z" fill="#0D99FF"/>
<path d="M18.5346 35L39.2696 53.1387C39.739 53.5495 40.0027 54.1066 40.0027 54.6875C40.0027 55.2684 39.739 55.8255 39.2696 56.2362C38.8002 56.647 38.1635 56.8777 37.4996 56.8777C36.8357 56.8777 36.199 56.647 35.7296 56.2362L13.2296 36.5487C12.9968 36.3455 12.8121 36.1041 12.686 35.8384C12.56 35.5726 12.4951 35.2877 12.4951 35C12.4951 34.7123 12.56 34.4273 12.686 34.1616C12.8121 33.8958 12.9968 33.6544 13.2296 33.4512L35.7296 13.7637C36.199 13.353 36.8357 13.1222 37.4996 13.1222C38.1635 13.1222 38.8002 13.353 39.2696 13.7637C39.739 14.1745 40.0027 14.7316 40.0027 15.3125C40.0027 15.8934 39.739 16.4505 39.2696 16.8612L18.5346 35Z" fill="#0D99FF"/>
</svg>
