<svg width="24" height="24" viewBox="0 0 24 24" fill="none" xmlns="http://www.w3.org/2000/svg">
<path d="M8.99999 2.725C9.00647 2.62661 9.03229 2.53046 9.07597 2.44206C9.11965 2.35366 9.18033 2.27474 9.25454 2.20982C9.32876 2.14489 9.41504 2.09524 9.50847 2.0637C9.60189 2.03216 9.70061 2.01935 9.79899 2.026C15.791 2.42 20.581 7.211 20.974 13.205C20.9804 13.3033 20.9674 13.4019 20.9358 13.4952C20.9041 13.5884 20.8544 13.6746 20.7894 13.7486C20.7245 13.8227 20.6456 13.8832 20.5572 13.9268C20.4689 13.9703 20.3728 13.9961 20.2745 14.0025C20.1762 14.0089 20.0776 13.9959 19.9843 13.9643C19.8911 13.9326 19.8049 13.8829 19.7309 13.8179C19.5813 13.6867 19.49 13.5015 19.477 13.303C19.134 8.061 14.942 3.868 9.69999 3.523C9.60161 3.51664 9.50544 3.49095 9.41699 3.44739C9.32854 3.40383 9.24955 3.34326 9.18454 3.26914C9.11952 3.19502 9.06976 3.10881 9.03809 3.01544C9.00642 2.92208 8.99348 2.82338 8.99999 2.725ZM7.58899 21.386L7.97699 21.772C8.11749 21.9115 8.30748 21.9898 8.50549 21.9898C8.70351 21.9898 8.89349 21.9115 9.03399 21.772L10.38 20.435C11.108 19.712 11.948 18.876 12.392 18.432C13.1606 17.6633 13.6839 16.6841 13.8959 15.6179C14.1079 14.5518 13.9991 13.4468 13.5831 12.4426C13.1671 11.4384 12.4626 10.5801 11.5588 9.97618C10.655 9.3723 9.59247 9.04998 8.50549 9.04998C7.41852 9.04998 6.35595 9.3723 5.45215 9.97618C4.54835 10.5801 3.84392 11.4384 3.42792 12.4426C3.01192 13.4468 2.90304 14.5518 3.11505 15.6179C3.32706 16.6841 3.85043 17.6633 4.61899 18.432C5.60722 19.4185 6.59722 20.4031 7.58899 21.386ZM8.49999 15.75C8.16847 15.75 7.85053 15.6183 7.61611 15.3839C7.38169 15.1495 7.24999 14.8315 7.24999 14.5C7.24999 14.1685 7.38169 13.8505 7.61611 13.6161C7.85053 13.3817 8.16847 13.25 8.49999 13.25C8.83151 13.25 9.14946 13.3817 9.38388 13.6161C9.6183 13.8505 9.74999 14.1685 9.74999 14.5C9.74999 14.8315 9.6183 15.1495 9.38388 15.3839C9.14946 15.6183 8.83151 15.75 8.49999 15.75ZM9.81799 5.503C9.71979 5.49401 9.62078 5.50447 9.52663 5.53378C9.43248 5.56309 9.34503 5.61069 9.26929 5.67384C9.19356 5.73699 9.13101 5.81445 9.08525 5.9018C9.03948 5.98915 9.01139 6.08466 9.00258 6.18288C8.99377 6.28109 9.00442 6.38008 9.03391 6.47418C9.0634 6.56828 9.11116 6.65563 9.17445 6.73125C9.23774 6.80687 9.31533 6.86927 9.40276 6.91487C9.49019 6.96047 9.58576 6.98838 9.68399 6.997C11.309 7.14673 12.8305 7.86031 13.9846 9.01406C15.1387 10.1678 15.8528 11.689 16.003 13.314C16.0119 13.4121 16.0401 13.5075 16.0859 13.5947C16.1317 13.6819 16.1942 13.7592 16.2699 13.8223C16.3455 13.8853 16.4329 13.9329 16.527 13.9622C16.621 13.9915 16.7199 14.0019 16.818 13.993C16.9161 13.9841 17.0115 13.9559 17.0987 13.9101C17.1859 13.8643 17.2632 13.8018 17.3263 13.7261C17.3893 13.6504 17.4369 13.5631 17.4662 13.469C17.4954 13.375 17.5059 13.2761 17.497 13.178C17.3149 11.2033 16.4473 9.35456 15.0446 7.95264C13.642 6.55073 11.7928 5.68406 9.81799 5.503Z" fill="#0D99FF"/>
</svg>
