<svg width="38" height="42" viewBox="0 0 38 42" fill="none" xmlns="http://www.w3.org/2000/svg">
<path d="M26.988 27.4381C26.9354 27.6399 26.846 27.8287 26.7248 27.9937C26.6036 28.1588 26.453 28.2968 26.2816 28.4C26.1102 28.5032 25.9213 28.5695 25.7258 28.5952C25.5302 28.6208 25.3318 28.6053 25.142 28.5495C24.9521 28.4937 24.7744 28.3987 24.619 28.2699C24.4637 28.1411 24.3338 27.9811 24.2366 27.799C24.1395 27.6169 24.0771 27.4162 24.0529 27.2084C24.0288 27.0007 24.0434 26.7899 24.096 26.5881L26.988 27.4381ZM35.6 5.04062C35.7906 4.98146 35.9904 4.96311 36.1878 4.98664C36.3851 5.01016 36.5761 5.0751 36.7497 5.17768C36.9232 5.28026 37.0759 5.41844 37.1988 5.58419C37.3217 5.74995 37.4124 5.93999 37.4656 6.14329C37.5189 6.34659 37.5336 6.55909 37.5089 6.76847C37.4842 6.97785 37.4206 7.17994 37.3219 7.36302C37.2231 7.54609 37.0911 7.7065 36.9335 7.83495C36.776 7.96339 36.596 8.05731 36.404 8.11125L35.6 5.04062ZM1.62395 28.4156C1.42863 28.3676 1.24435 28.2785 1.082 28.1536C0.91964 28.0287 0.782501 27.8704 0.678684 27.6882C0.574867 27.506 0.506481 27.3035 0.477562 27.0927C0.448643 26.882 0.459785 26.6672 0.510323 26.4611C0.56086 26.2549 0.649769 26.0617 0.771797 25.8927C0.893826 25.7237 1.0465 25.5824 1.22079 25.4772C1.39509 25.372 1.58747 25.3049 1.78656 25.28C1.98565 25.2551 2.18743 25.2729 2.37995 25.3322L1.62395 28.4156ZM21.606 32.3129C20.986 34.6929 22.346 37.2067 24.754 37.8719L24 40.9552C20.046 39.8651 17.63 35.6385 18.714 31.4629L21.606 32.3129ZM24.754 37.8719C27.178 38.5412 29.61 37.0452 30.234 34.644L33.126 35.494C32.046 39.6484 27.938 42.0432 24 40.9552L24.754 37.8719ZM30.234 34.644C30.854 32.264 29.494 29.7501 27.086 29.085L27.84 26.0037C31.794 27.0939 34.212 31.3184 33.126 35.494L30.234 34.644ZM27.086 29.085C24.662 28.4156 22.23 29.9116 21.606 32.3129L18.714 31.4629C19.794 27.3085 23.902 24.9136 27.84 26.0016L27.086 29.085ZM24.096 26.5881L28.4 10.0344L31.292 10.8844L26.988 27.4381L24.096 26.5881ZM32.192 6.04362L35.6 5.04062L36.404 8.11125L32.994 9.11637L32.192 6.04362ZM28.4 10.0344C28.6542 9.07809 29.1371 8.20799 29.8016 7.50869C30.4661 6.80938 31.2895 6.30467 32.192 6.04362L32.99 9.11637C32.14 9.36712 31.508 10.0535 31.292 10.8844L28.4 10.0344ZM19.78 33.4306L1.62395 28.4156L2.37795 25.3322L20.5359 30.3472L19.78 33.4306Z" fill="#14AE5C"/>
<path opacity="0.5" d="M22.8701 13.5513C23.8401 9.82188 24.3241 7.95613 23.5001 6.48775C22.6781 5.01725 20.8681 4.51788 17.2481 3.517L13.4081 2.45875C9.78811 1.46 7.9781 0.958503 6.5521 1.80638C5.1261 2.65638 4.64011 4.52 3.67211 8.2515L2.64211 12.2083C1.67211 15.9376 1.18611 17.8034 2.01011 19.2739C2.83411 20.7423 4.64411 21.2438 8.26411 22.2425L12.1041 23.3029C15.7241 24.3016 17.5341 24.801 18.9601 23.9531C20.3861 23.1031 20.8701 21.2395 21.8401 17.5101L22.8701 13.5513Z" stroke="#14AE5C" stroke-width="1.5"/>
</svg>
