<svg width="71" height="52" viewBox="0 0 71 52" fill="none" xmlns="http://www.w3.org/2000/svg">
<path d="M27.3734 32.3356L19.4342 35.75L35.5 42.6595L51.5658 35.75L43.6266 32.3356L46.5435 28.5828L63.2084 35.75L35.5 47.6666L7.79176 35.75L24.4565 28.5828L27.3734 32.3356Z" fill="#0D99FF"/>
<path fill-rule="evenodd" clip-rule="evenodd" d="M32.1322 34.1249L32.9741 35.2083L35.5 38.4584L38.0259 35.2083L38.8679 34.1249C42.5094 29.4396 47.9105 22.4906 48.7635 21.3965C50.0688 19.7221 50.8125 17.7806 50.8125 15.7084C50.8125 9.42613 43.9569 4.33337 35.5 4.33337C27.0431 4.33337 20.1875 9.42613 20.1875 15.7084C20.1875 17.7806 20.9312 19.7221 22.2365 21.3965C23.0895 22.4906 28.4907 29.4396 32.1322 34.1249ZM35.5 29.7916C32.0656 25.3729 28.0153 20.1624 27.2846 19.2249L35.5 29.7916ZM35.5 29.7916C38.9345 25.3728 42.9849 20.1621 43.7156 19.2249C44.5187 18.1946 44.9791 16.9998 44.9791 15.7084C44.9791 11.8193 40.7352 8.66664 35.5 8.66664C30.2648 8.66664 26.0209 11.8193 26.0209 15.7084C26.0209 16.9998 26.4813 18.1946 27.2846 19.2249" fill="#0D99FF"/>
<path d="M40.6041 15.1666C40.6041 17.2607 38.319 18.9584 35.5 18.9584C32.6811 18.9584 30.3959 17.2607 30.3959 15.1666C30.3959 13.0726 32.6811 11.375 35.5 11.375C38.319 11.375 40.6041 13.0726 40.6041 15.1666Z" fill="#0D99FF"/>
</svg>
