<svg width="48" height="51" viewBox="0 0 48 51" fill="none" xmlns="http://www.w3.org/2000/svg">
<path d="M32.988 32.4381C32.9354 32.6399 32.846 32.8287 32.7248 32.9937C32.6036 33.1588 32.453 33.2968 32.2816 33.4C32.1102 33.5032 31.9213 33.5695 31.7258 33.5952C31.5302 33.6208 31.3318 33.6053 31.142 33.5495C30.9521 33.4937 30.7744 33.3987 30.619 33.2699C30.4637 33.1411 30.3338 32.9811 30.2366 32.799C30.1395 32.6169 30.0771 32.4162 30.0529 32.2084C30.0288 32.0007 30.0434 31.7899 30.096 31.5881L32.988 32.4381ZM41.6 10.0406C41.7906 9.98146 41.9904 9.96311 42.1878 9.98664C42.3851 10.0102 42.5761 10.0751 42.7497 10.1777C42.9232 10.2803 43.0759 10.4184 43.1988 10.5842C43.3217 10.75 43.4124 10.94 43.4656 11.1433C43.5189 11.3466 43.5336 11.5591 43.5089 11.7685C43.4842 11.9779 43.4206 12.1799 43.3219 12.363C43.2231 12.5461 43.0911 12.7065 42.9335 12.8349C42.776 12.9634 42.596 13.0573 42.404 13.1112L41.6 10.0406ZM7.62395 33.4156C7.42863 33.3676 7.24435 33.2785 7.082 33.1536C6.91964 33.0287 6.7825 32.8704 6.67868 32.6882C6.57487 32.506 6.50648 32.3035 6.47756 32.0927C6.44864 31.882 6.45979 31.6672 6.51032 31.4611C6.56086 31.2549 6.64977 31.0617 6.7718 30.8927C6.89383 30.7237 7.0465 30.5824 7.22079 30.4772C7.39509 30.372 7.58747 30.3049 7.78656 30.28C7.98565 30.2551 8.18743 30.2729 8.37995 30.3322L7.62395 33.4156ZM27.606 37.3129C26.986 39.6929 28.346 42.2067 30.754 42.8719L30 45.9552C26.046 44.8651 23.63 40.6385 24.714 36.4629L27.606 37.3129ZM30.754 42.8719C33.178 43.5412 35.61 42.0452 36.234 39.644L39.126 40.494C38.046 44.6484 33.938 47.0432 30 45.9552L30.754 42.8719ZM36.234 39.644C36.854 37.264 35.494 34.7501 33.086 34.085L33.84 31.0037C37.794 32.0939 40.212 36.3184 39.126 40.494L36.234 39.644ZM33.086 34.085C30.662 33.4156 28.23 34.9116 27.606 37.3129L24.714 36.4629C25.794 32.3085 29.902 29.9136 33.84 31.0016L33.086 34.085ZM30.096 31.5881L34.4 15.0344L37.292 15.8844L32.988 32.4381L30.096 31.5881ZM38.192 11.0436L41.6 10.0406L42.404 13.1112L38.994 14.1164L38.192 11.0436ZM34.4 15.0344C34.6542 14.0781 35.1371 13.208 35.8016 12.5087C36.4661 11.8094 37.2895 11.3047 38.192 11.0436L38.99 14.1164C38.14 14.3671 37.508 15.0535 37.292 15.8844L34.4 15.0344ZM25.78 38.4306L7.62395 33.4156L8.37795 30.3322L26.5359 35.3472L25.78 38.4306Z" fill="#0D99FF"/>
<path opacity="0.5" d="M28.8701 18.5513C29.8401 14.8219 30.3241 12.9561 29.5001 11.4878C28.6781 10.0173 26.8681 9.51788 23.2481 8.517L19.4081 7.45875C15.7881 6.46 13.9781 5.9585 12.5521 6.80638C11.1261 7.65638 10.6401 9.52 9.67211 13.2515L8.64211 17.2083C7.67211 20.9376 7.18611 22.8034 8.01011 24.2739C8.83411 25.7423 10.6441 26.2438 14.2641 27.2425L18.1041 28.3029C21.7241 29.3016 23.5341 29.801 24.9601 28.9531C26.3861 28.1031 26.8701 26.2395 27.8401 22.5101L28.8701 18.5513Z" stroke="#0D99FF" stroke-width="1.5"/>
</svg>
