<svg width="48" height="51" viewBox="0 0 48 51" fill="none" xmlns="http://www.w3.org/2000/svg">
<path d="M17.6 -2.48151e-06C16.1075 -0.0379231 14.623 0.241663 13.2337 0.822308C11.8444 1.40295 10.5784 2.27293 9.5102 3.38107C8.44201 4.48921 7.59317 5.81313 7.01363 7.27495C6.43408 8.73677 6.13553 10.307 6.13553 11.8932C6.13553 13.4794 6.43408 15.0496 7.01363 16.5114C7.59317 17.9733 8.44201 19.2972 9.5102 20.4053C10.5784 21.5135 11.8444 22.3834 13.2337 22.9641C14.623 23.5447 16.1075 23.8243 17.6 23.7864C19.0925 23.8243 20.577 23.5447 21.9663 22.9641C23.3556 22.3834 24.6216 21.5135 25.6898 20.4053C26.758 19.2972 27.6068 17.9733 28.1864 16.5114C28.7659 15.0496 29.0645 13.4794 29.0645 11.8932C29.0645 10.307 28.7659 8.73677 28.1864 7.27495C27.6068 5.81313 26.758 4.48921 25.6898 3.38107C24.6216 2.27293 23.3556 1.40295 21.9663 0.822308C20.577 0.241663 19.0925 -0.0379231 17.6 -2.48151e-06ZM11.2 30.5796C8.22958 30.5796 5.38081 31.8333 3.2804 34.065C1.18 36.2967 0 39.3235 0 42.4796L0 50.9694H35.2V42.4796C35.2 39.3235 34.02 36.2967 31.9196 34.065C29.8192 31.8333 26.9704 30.5796 24 30.5796H11.2ZM40 34H38.4V51H48V42.5C48 40.2457 47.1571 38.0836 45.6569 36.4896C44.1566 34.8955 42.1217 34 40 34Z" fill="#0D99FF"/>
<path d="M36.7998 13.6C34.6781 13.6 32.6432 14.4955 31.143 16.0896C29.6427 17.6837 28.7998 19.8457 28.7998 22.1C28.7998 24.3543 29.6427 26.5164 31.143 28.1104C32.6432 29.7045 34.6781 30.6 36.7998 30.6C38.9215 30.6 40.9564 29.7045 42.4567 28.1104C43.957 26.5164 44.7998 24.3543 44.7998 22.1C44.7998 19.8457 43.957 17.6837 42.4567 16.0896C40.9564 14.4955 38.9215 13.6 36.7998 13.6Z" fill="#0D99FF"/>
</svg>
