<svg width="31" height="35" viewBox="0 0 31 35" fill="none" xmlns="http://www.w3.org/2000/svg">
<path fill-rule="evenodd" clip-rule="evenodd" d="M12.1322 30.1249L12.9741 31.2083L15.5 34.4584L18.0259 31.2083L18.8679 30.1249C22.5094 25.4396 27.9105 18.4906 28.7635 17.3965C30.0688 15.7221 30.8125 13.7806 30.8125 11.7084C30.8125 5.42613 23.9569 0.333374 15.5 0.333374C7.04313 0.333374 0.1875 5.42613 0.1875 11.7084C0.1875 13.7806 0.93125 15.7221 2.2365 17.3965C3.08949 18.4906 8.4907 25.4396 12.1322 30.1249ZM15.5 25.7916C12.0656 21.3729 8.01533 16.1624 7.28457 15.2249L15.5 25.7916ZM15.5 25.7916C18.9345 21.3728 22.9849 16.1621 23.7156 15.2249C24.5187 14.1946 24.9791 12.9998 24.9791 11.7084C24.9791 7.81934 20.7352 4.66664 15.5 4.66664C10.2648 4.66664 6.02088 7.81934 6.02088 11.7084C6.02088 12.9998 6.48135 14.1946 7.28457 15.2249" fill="#0D99FF"/>
</svg>
